<svg xmlns="http://www.w3.org/2000/svg" width="210.441" height="65.741" viewBox="0 0 210.441 65.741">
  <g id="Group_2578" data-name="Group 2578" transform="translate(-200.875 -58.829)">
    <path id="Path_142" data-name="Path 142" d="M6.55-5.34a2.082,2.082,0,0,1-.745,1.625,2.689,2.689,0,0,1-1.845.657q-.66,0-1.3-.055v1.947a1.085,1.085,0,0,0,.1.539.649.649,0,0,0,.336.245,3.134,3.134,0,0,0,.7.146q.088.011.088.149,0,.154-.088.154-.369,0-.875-.033Q2.436,0,2.1,0T1.276.033Q.764.066.4.066.308.066.308-.088q0-.137.088-.149a2.106,2.106,0,0,0,.9-.247.794.794,0,0,0,.239-.682V-6.341a1.1,1.1,0,0,0-.1-.542.643.643,0,0,0-.338-.247A3.2,3.2,0,0,0,.4-7.276q-.088,0-.088-.154T.4-7.584q.369,0,.88.033.49.033.825.033t.819-.033q.506-.033.875-.033a3.186,3.186,0,0,1,2.054.572A2.032,2.032,0,0,1,6.55-5.34Zm-1.221,0A2.023,2.023,0,0,0,4.9-6.715,1.446,1.446,0,0,0,3.751-7.21a2.568,2.568,0,0,0-.663.066.551.551,0,0,0-.33.215,1.206,1.206,0,0,0-.1.589v2.524A.325.325,0,0,0,2.81-3.5a1.629,1.629,0,0,0,.644.08A1.828,1.828,0,0,0,4.84-3.932,1.953,1.953,0,0,0,5.329-5.34ZM13.92-1.749A15.848,15.848,0,0,0,13.194.066Q11.121,0,10.241,0T7.293.066q-.088,0-.088-.154,0-.137.088-.149a3.175,3.175,0,0,0,.7-.146A.649.649,0,0,0,8.33-.627a1.085,1.085,0,0,0,.1-.539V-6.341a1.144,1.144,0,0,0-.091-.536A.625.625,0,0,0,8-7.128a3.076,3.076,0,0,0-.71-.148q-.088,0-.088-.154t.088-.154q1.386.066,2.838.066t2.844-.066A12.642,12.642,0,0,0,13.343-5.9q0,.11-.193.11a.106.106,0,0,1-.116-.077,1.676,1.676,0,0,0-1.738-1.3H10.186a.574.574,0,0,0-.638.66v2.447h1.386a.9.9,0,0,0,.745-.253,1.9,1.9,0,0,0,.272-.9q0-.088.154-.088t.154.088q0,.275-.033.693-.033.4-.033.655t.033.66q.033.429.033.7,0,.088-.154.088T11.951-2.5a2.017,2.017,0,0,0-.289-.941.865.865,0,0,0-.729-.27H9.548V-1a.569.569,0,0,0,.638.649h1.2a2.332,2.332,0,0,0,1.3-.426,2.611,2.611,0,0,0,.946-1.064.091.091,0,0,1,.094-.049.238.238,0,0,1,.138.041A.121.121,0,0,1,13.92-1.749Zm8.712-1.958A3.534,3.534,0,0,1,21.5-.974,4.356,4.356,0,0,1,18.436.066q-.242,0-.979-.022Q16.7.022,16.445.022q-1.023,0-1.991.044-.088,0-.088-.154,0-.137.088-.149a3.175,3.175,0,0,0,.7-.146.649.649,0,0,0,.338-.245,1.085,1.085,0,0,0,.1-.539V-6.32a1.144,1.144,0,0,0-.091-.536.625.625,0,0,0-.333-.25,3.076,3.076,0,0,0-.71-.148q-.088,0-.088-.154t.088-.154q.643.044,1.991.044.253,0,1.012-.016.737-.017.979-.017a4.287,4.287,0,0,1,3.039,1.075A3.609,3.609,0,0,1,22.632-3.707Zm-1.21,0A3.678,3.678,0,0,0,20.567-6.2a2.711,2.711,0,0,0-2.142-.993h-.033l-1.034.022q-.649.022-.649.638V-.957a.564.564,0,0,0,.649.627L18.392-.3a2.781,2.781,0,0,0,2.156-.976A3.513,3.513,0,0,0,21.423-3.707ZM30.762-.088q0,.154-.088.154-.38,0-.858-.033Q29.4,0,29.111,0q-.335,0-.83.033-.523.033-.891.033-.088,0-.088-.154t.066-.154a1.876,1.876,0,0,0,.7-.129A.351.351,0,0,0,28.287-.7a1.586,1.586,0,0,0-.11-.456L27.555-3H25.289L24.662-1.3a1.72,1.72,0,0,0-.121.528q0,.484.891.528.066,0,.066.154T25.41.066q-.33,0-.731-.033Q24.3,0,24,0q-.237,0-.594.033-.374.033-.638.033-.083,0-.083-.138,0-.154.127-.165a1.363,1.363,0,0,0,.723-.253,2.293,2.293,0,0,0,.553-.852l2.574-6.319a.145.145,0,0,1,.154-.088q.132,0,.165.082l2.272,6.325a1.686,1.686,0,0,0,.52.786,1.751,1.751,0,0,0,.877.319Q30.762-.226,30.762-.088ZM27.434-3.355l-.968-2.811L25.421-3.355Zm11.841.044q0,.137-.088.148a2.106,2.106,0,0,0-.9.247.794.794,0,0,0-.239.682v.649a3.766,3.766,0,0,0,.121,1.166,10,10,0,0,1-1.579.476,7.142,7.142,0,0,1-1.5.184,4.679,4.679,0,0,1-2.2-.495,3.574,3.574,0,0,1-1.474-1.416,4.046,4.046,0,0,1-.528-2.049,3.88,3.88,0,0,1,.572-2.06,3.891,3.891,0,0,1,1.578-1.455,4.923,4.923,0,0,1,2.283-.517,6.836,6.836,0,0,1,1.331.176,5.983,5.983,0,0,0,1.127.154q.071.77.253,1.87,0,.088-.176.088-.115,0-.137-.088A2.362,2.362,0,0,0,35.145-7.4a2.7,2.7,0,0,0-2.17,1.067A3.979,3.979,0,0,0,32.1-3.718a3.883,3.883,0,0,0,.869,2.555A2.657,2.657,0,0,0,35.09-.11q1.842,0,1.842-.913V-2.475a.443.443,0,0,0-.292-.432,5.936,5.936,0,0,0-1.4-.239q-.088,0-.088-.165t.088-.154q.368,0,1.089.027.693.027,1.028.027t.875-.027q.583-.027.951-.027Q39.275-3.465,39.275-3.311Zm8.734-.407A3.835,3.835,0,0,1,46.887-.866,3.992,3.992,0,0,1,43.956.242,3.982,3.982,0,0,1,41.027-.866a3.84,3.84,0,0,1-1.119-2.852,3.942,3.942,0,0,1,1.128-2.89,3.926,3.926,0,0,1,2.92-1.141,3.933,3.933,0,0,1,2.926,1.141A3.942,3.942,0,0,1,48.009-3.718Zm-1.21,0a4.253,4.253,0,0,0-.784-2.651A2.467,2.467,0,0,0,43.956-7.4,2.458,2.458,0,0,0,41.9-6.369a4.274,4.274,0,0,0-.778,2.651,4.145,4.145,0,0,0,.773,2.61,2.479,2.479,0,0,0,2.065,1,2.489,2.489,0,0,0,2.065-1A4.124,4.124,0,0,0,46.8-3.718Zm10.593.407q0,.137-.088.148a2.106,2.106,0,0,0-.9.247.794.794,0,0,0-.239.682v.649a3.766,3.766,0,0,0,.121,1.166A10,10,0,0,1,54.7.058a7.142,7.142,0,0,1-1.5.184,4.679,4.679,0,0,1-2.2-.495,3.574,3.574,0,0,1-1.474-1.416A4.046,4.046,0,0,1,49-3.718a3.88,3.88,0,0,1,.572-2.06,3.891,3.891,0,0,1,1.578-1.455,4.923,4.923,0,0,1,2.283-.517,6.836,6.836,0,0,1,1.331.176,5.983,5.983,0,0,0,1.128.154q.071.77.253,1.87,0,.088-.176.088-.115,0-.138-.088A2.362,2.362,0,0,0,53.262-7.4a2.7,2.7,0,0,0-2.17,1.067,3.979,3.979,0,0,0-.877,2.613,3.883,3.883,0,0,0,.869,2.555A2.657,2.657,0,0,0,53.207-.11q1.843,0,1.843-.913V-2.475a.443.443,0,0,0-.292-.432,5.936,5.936,0,0,0-1.4-.239q-.088,0-.088-.165t.088-.154q.368,0,1.089.027.693.027,1.028.027t.875-.027q.583-.027.951-.027Q57.392-3.465,57.392-3.311ZM61.743-.088q0,.154-.088.154-.368,0-.875-.033Q60.3,0,59.961,0t-.819.033q-.511.033-.885.033-.088,0-.088-.154,0-.137.088-.149a2.106,2.106,0,0,0,.9-.247.794.794,0,0,0,.239-.682V-6.341a1.1,1.1,0,0,0-.1-.542.643.643,0,0,0-.338-.247,3.2,3.2,0,0,0-.709-.146q-.088,0-.088-.154t.088-.154q.374,0,.885.033.484.033.819.033t.819-.033q.506-.033.875-.033.088,0,.088.154t-.088.154a3.189,3.189,0,0,0-.7.146.634.634,0,0,0-.336.245,1.128,1.128,0,0,0-.093.544v5.175a1.114,1.114,0,0,0,.093.536.627.627,0,0,0,.333.248,3.134,3.134,0,0,0,.7.146Q61.743-.226,61.743-.088Zm9.311,0q0,.154-.088.154-.368,0-.88-.033Q69.6,0,69.261,0t-.9.033q-.6.033-.968.033-.088,0-.088-.154,0-.137.077-.149.742-.088.742-.358a.661.661,0,0,0-.242-.4L65.7-3.212a1.06,1.06,0,0,0-.305-.231.928.928,0,0,0-.355-.055v2.332a1.087,1.087,0,0,0,.1.536.643.643,0,0,0,.341.248,3.231,3.231,0,0,0,.7.146q.094.011.094.149,0,.154-.088.154-.368,0-.88-.033Q64.818,0,64.482,0t-.814.033q-.511.033-.88.033-.088,0-.088-.154,0-.137.088-.149a2.106,2.106,0,0,0,.9-.247.794.794,0,0,0,.239-.682V-6.341a1.1,1.1,0,0,0-.1-.542.643.643,0,0,0-.338-.247,3.2,3.2,0,0,0-.709-.146q-.088,0-.088-.154t.088-.154q.368,0,.88.033.484.033.814.033t.825-.033q.511-.033.88-.033.088,0,.088.154t-.088.154a3.2,3.2,0,0,0-.709.146.643.643,0,0,0-.338.247,1.1,1.1,0,0,0-.1.542V-3.85a.914.914,0,0,0,.346-.055,1.1,1.1,0,0,0,.313-.231l2.415-2.382q.3-.28.3-.407a.239.239,0,0,0-.14-.223,1.937,1.937,0,0,0-.564-.129q-.088,0-.088-.154t.1-.154q.258,0,.682.033.451.033.748.033a6.305,6.305,0,0,0,.66-.038q.3-.028.517-.028.077,0,.077.154t-.088.154a2.681,2.681,0,0,0-.83.214,3.182,3.182,0,0,0-.726.55L66.253-4.125,69.371-.957a2.25,2.25,0,0,0,.641.492,3.191,3.191,0,0,0,.943.228Q71.055-.226,71.054-.088Zm13.233,0q0,.154-.088.154-.368,0-.9-.033Q82.8,0,82.462,0t-.82.033q-.506.033-.874.033-.1,0-.1-.154,0-.137.088-.149a2.147,2.147,0,0,0,.877-.237.684.684,0,0,0,.234-.6v-.088L81.636-6.5,78.985.154a.145.145,0,0,1-.154.088q-.126,0-.148-.088l-2.5-6.386-.4,5.066A1.432,1.432,0,0,0,75.779-1a.576.576,0,0,0,.253.528,2.3,2.3,0,0,0,.9.231q.077.011.077.154t-.1.154q-.286,0-.781-.033Q75.669,0,75.416,0q-.275,0-.748.033-.456.033-.7.033-.077,0-.077-.154,0-.137.1-.149a2.39,2.39,0,0,0,.96-.258.829.829,0,0,0,.305-.671l.572-5.175q.006-.1.006-.176a.565.565,0,0,0-.253-.517,2.436,2.436,0,0,0-.919-.242q-.077,0-.077-.154a.185.185,0,0,1,.033-.1q.033-.049.066-.049.2,0,.577.033.319.033.467.033.193,0,.55-.033t.572-.033l2.359,6.121,2.442-6.121q.22,0,.577.033.324.033.511.033.231,0,.556-.033t.577-.033q.1,0,.1.154t-.088.154A2.147,2.147,0,0,0,83-7.04a.684.684,0,0,0-.234.605v.094l.253,5.175a1.124,1.124,0,0,0,.118.539.682.682,0,0,0,.349.245,3.3,3.3,0,0,0,.71.146Q84.287-.226,84.287-.088Zm8.283,0q0,.154-.088.154-.379,0-.858-.033Q91.212,0,90.921,0q-.336,0-.83.033-.523.033-.891.033-.088,0-.088-.154t.066-.154a1.876,1.876,0,0,0,.7-.129A.351.351,0,0,0,90.1-.7a1.586,1.586,0,0,0-.11-.456L89.364-3H87.1L86.471-1.3a1.72,1.72,0,0,0-.121.528q0,.484.891.528.066,0,.066.154t-.088.154q-.33,0-.731-.033Q86.108,0,85.811,0q-.236,0-.594.033-.374.033-.638.033-.083,0-.083-.138,0-.154.127-.165a1.363,1.363,0,0,0,.723-.253,2.293,2.293,0,0,0,.553-.852l2.574-6.319a.145.145,0,0,1,.154-.088q.132,0,.165.082l2.271,6.325a1.686,1.686,0,0,0,.52.786,1.751,1.751,0,0,0,.877.319Q92.571-.226,92.571-.088ZM89.243-3.355l-.968-2.811L87.23-3.355ZM101.8-.088q0,.154-.088.154-.374,0-.886-.033Q100.342,0,100.007,0t-.776.033q-.462.033-.83.033-.088,0-.088-.154,0-.137.093-.149a2.664,2.664,0,0,0,.688-.151.5.5,0,0,0,.289-.253,1.542,1.542,0,0,0,.063-.525V-3.619h-4.2v2.453a1.542,1.542,0,0,0,.063.525.5.5,0,0,0,.289.253,2.679,2.679,0,0,0,.693.151q.088.011.088.149,0,.154-.088.154-.368,0-.83-.033Q95.023,0,94.688,0t-.825.033q-.511.033-.88.033-.088,0-.088-.154,0-.137.088-.149a2.106,2.106,0,0,0,.9-.247.794.794,0,0,0,.239-.682V-6.341a1.1,1.1,0,0,0-.1-.542.643.643,0,0,0-.338-.247,3.2,3.2,0,0,0-.709-.146q-.088,0-.088-.154t.088-.154q.368,0,.88.033.489.033.825.033t.776-.033q.462-.033.83-.033.088,0,.088.154t-.088.154a2.907,2.907,0,0,0-.649.132.592.592,0,0,0-.308.223,1.248,1.248,0,0,0-.088.58v2.37h4.2v-2.37a1.568,1.568,0,0,0-.063-.528.494.494,0,0,0-.286-.256,2.65,2.65,0,0,0-.7-.151q-.088,0-.088-.154t.088-.154q.368,0,.83.033.44.033.776.033t.819-.033q.511-.033.886-.033.088,0,.088.154t-.088.154a3.2,3.2,0,0,0-.71.146.643.643,0,0,0-.338.247,1.1,1.1,0,0,0-.1.542v5.175a.794.794,0,0,0,.239.682,2.106,2.106,0,0,0,.9.247Q101.8-.226,101.8-.088Zm8.91-3.63a3.835,3.835,0,0,1-1.122,2.852A3.992,3.992,0,0,1,106.656.242a3.982,3.982,0,0,1-2.929-1.108,3.84,3.84,0,0,1-1.119-2.852,3.942,3.942,0,0,1,1.127-2.89,3.926,3.926,0,0,1,2.921-1.141,3.933,3.933,0,0,1,2.926,1.141A3.942,3.942,0,0,1,110.709-3.718Zm-1.21,0a4.253,4.253,0,0,0-.784-2.651,2.467,2.467,0,0,0-2.06-1.029,2.458,2.458,0,0,0-2.06,1.029,4.274,4.274,0,0,0-.778,2.651,4.145,4.145,0,0,0,.773,2.61,2.479,2.479,0,0,0,2.065,1,2.489,2.489,0,0,0,2.065-1A4.124,4.124,0,0,0,109.5-3.718Zm9.68,3.63q0,.154-.088.154-.2,0-.665-.038Q118.09,0,117.98,0q-.159,0-.5.033t-.5.033l-1.667-2.717a2.826,2.826,0,0,0-.569-.72,1.614,1.614,0,0,0-.872-.16v2.365a1.087,1.087,0,0,0,.1.536.643.643,0,0,0,.341.248,3.231,3.231,0,0,0,.7.146q.093.011.093.149,0,.154-.088.154-.368,0-.88-.033Q113.647,0,113.311,0t-.819.033q-.506.033-.875.033-.088,0-.088-.154,0-.137.088-.149a3.175,3.175,0,0,0,.7-.146.649.649,0,0,0,.338-.245,1.085,1.085,0,0,0,.1-.539V-6.341a1.144,1.144,0,0,0-.091-.536.625.625,0,0,0-.333-.25,3.076,3.076,0,0,0-.71-.148q-.088,0-.088-.154t.088-.154q.368,0,.875.033.484.033.819.033t.825-.033q.511-.033.88-.033a3.038,3.038,0,0,1,1.9.52,1.741,1.741,0,0,1,.671,1.46,1.607,1.607,0,0,1-.465,1.1,2.991,2.991,0,0,1-1.257.784l1.776,2.706a1.381,1.381,0,0,0,.567.536,2.755,2.755,0,0,0,.9.239Q119.179-.226,119.179-.088ZM116.374-5.6q0-1.606-1.4-1.606a2.51,2.51,0,0,0-.7.074.5.5,0,0,0-.319.234,1.378,1.378,0,0,0-.08.561v2.447a6.05,6.05,0,0,0,.8.044,1.739,1.739,0,0,0,1.293-.418A1.862,1.862,0,0,0,116.374-5.6ZM127.32-.088q0,.154-.088.154-.379,0-.858-.033Q125.961,0,125.67,0q-.336,0-.83.033-.523.033-.891.033-.088,0-.088-.154t.066-.154a1.876,1.876,0,0,0,.7-.129.351.351,0,0,0,.214-.333,1.586,1.586,0,0,0-.11-.456L124.113-3h-2.266L121.22-1.3a1.72,1.72,0,0,0-.121.528q0,.484.891.528.066,0,.066.154t-.088.154q-.33,0-.731-.033Q120.857,0,120.56,0q-.236,0-.594.033-.374.033-.638.033-.083,0-.083-.138,0-.154.127-.165A1.363,1.363,0,0,0,120.1-.49a2.293,2.293,0,0,0,.553-.852l2.574-6.319a.145.145,0,0,1,.154-.088q.132,0,.165.082l2.271,6.325a1.686,1.686,0,0,0,.52.786,1.751,1.751,0,0,0,.877.319Q127.32-.226,127.32-.088Zm-3.327-3.267-.968-2.811-1.045,2.811Zm10.324-2.42q0,.1-.2.1a.1.1,0,0,1-.11-.077,2.049,2.049,0,0,0-.677-1.1,2.2,2.2,0,0,0-1.3-.322h-.517a.569.569,0,0,0-.368.088.432.432,0,0,0-.1.33v5.582a1.087,1.087,0,0,0,.1.536.643.643,0,0,0,.341.248,3.231,3.231,0,0,0,.7.146q.088.011.088.149,0,.154-.088.154-.368,0-.88-.033Q130.818,0,130.493,0t-.825.033q-.512.033-.88.033-.088,0-.088-.154,0-.137.088-.149a2.106,2.106,0,0,0,.9-.247.794.794,0,0,0,.239-.682V-6.748a.432.432,0,0,0-.1-.33.58.58,0,0,0-.374-.088h-.429a2.613,2.613,0,0,0-1.408.393,1.819,1.819,0,0,0-.825,1.02.115.115,0,0,1-.121.082q-.187,0-.187-.121.308-.83.583-1.881a22.515,22.515,0,0,0,3.421.154,23.265,23.265,0,0,0,3.493-.154Q134.063-6.957,134.316-5.775Z" transform="translate(277 78)" fill="#fff"/>
    <path id="Path_140" data-name="Path 140" d="M8.088-13.806q0,.168-.116.168a1.343,1.343,0,0,0-.7.226,2.234,2.234,0,0,0-.523.836L4.11-6.538a.144.144,0,0,1-.147.084.13.13,0,0,1-.137-.089L1.471-12.577a2.988,2.988,0,0,0-.323-.675A.769.769,0,0,0,.8-13.5a3.261,3.261,0,0,0-.7-.139.093.093,0,0,1-.071-.045.164.164,0,0,1-.034-.1q0-.147.074-.147.352,0,.778.032.4.032.725.032T2.37-13.9q.494-.032.846-.032.084,0,.084.147t-.053.147a1.822,1.822,0,0,0-.667.121.327.327,0,0,0-.2.31,1.532,1.532,0,0,0,.126.457L4.32-7.968l1.887-4.651a1.714,1.714,0,0,0,.095-.452q0-.515-.914-.568-.063,0-.063-.147t.095-.147q.247,0,.646.032.441.032.73.032.236,0,.6-.032t.625-.032Q8.088-13.932,8.088-13.806Zm6.39,7.037q0,.147-.084.147-.363,0-.82-.032-.394-.032-.673-.032-.321,0-.794.032-.5.032-.851.032-.084,0-.084-.147t.063-.147a1.792,1.792,0,0,0,.673-.123.335.335,0,0,0,.2-.318,1.516,1.516,0,0,0-.105-.436l-.594-1.76H9.249l-.6,1.629a1.644,1.644,0,0,0-.116.5q0,.462.851.5.063,0,.063.147t-.084.147q-.315,0-.7-.032-.363-.032-.646-.032-.226,0-.568.032-.357.032-.61.032-.079,0-.079-.131,0-.147.121-.158a1.3,1.3,0,0,0,.691-.242A2.191,2.191,0,0,0,8.1-7.968l2.459-6.038a.139.139,0,0,1,.147-.084q.126,0,.158.079l2.17,6.043a1.611,1.611,0,0,0,.5.751,1.673,1.673,0,0,0,.838.3Q14.478-6.9,14.478-6.77ZM11.3-9.891l-.925-2.685-1,2.685ZM24.137-6.77q0,.147-.084.147-.247,0-.688-.032-.473-.032-.762-.032-.31,0-.82.032-.536.032-.893.032-.079,0-.079-.147,0-.131.084-.142.73-.1.73-.331a1.2,1.2,0,0,0-.263-.557L19.991-9.776,18.624-7.8a.721.721,0,0,0-.168.42.322.322,0,0,0,.194.3,2.178,2.178,0,0,0,.667.166q.063.011.063.147t-.084.147q-.363,0-.83-.032-.41-.032-.683-.032-.236,0-.578.032-.389.032-.7.032-.084,0-.084-.147,0-.131.116-.142a2.05,2.05,0,0,0,.815-.223,2.677,2.677,0,0,0,.683-.67l1.76-2.265-1.86-2.675a2.1,2.1,0,0,0-.652-.688,2.442,2.442,0,0,0-.841-.2q-.084,0-.084-.147t.084-.147q.247,0,.7.032.489.032.773.032.321,0,.815-.032.526-.032.878-.032.084,0,.084.147t-.084.147a2.228,2.228,0,0,0-.583.131.226.226,0,0,0-.152.2,1.2,1.2,0,0,0,.263.557l1.293,1.855,1.288-1.855a.968.968,0,0,0,.189-.431.325.325,0,0,0-.208-.292A2.238,2.238,0,0,0,21-13.638q-.063,0-.063-.147t.084-.147q.352,0,.773.032.4.032.72.032.247,0,.578-.026.41-.037.778-.037.084,0,.084.147a.157.157,0,0,1-.037.1.1.1,0,0,1-.079.045,2.256,2.256,0,0,0-.87.239,2.607,2.607,0,0,0-.675.654L20.621-10.6,22.55-7.8a2.209,2.209,0,0,0,.652.686,2.686,2.686,0,0,0,.851.2Q24.137-6.9,24.137-6.77Zm7.935,0q0,.147-.084.147-.363,0-.82-.032-.394-.032-.673-.032-.321,0-.794.032-.5.032-.851.032-.084,0-.084-.147t.063-.147A1.792,1.792,0,0,0,29.5-7.04a.335.335,0,0,0,.2-.318,1.515,1.515,0,0,0-.105-.436l-.594-1.76H26.843l-.6,1.629a1.644,1.644,0,0,0-.116.5q0,.462.851.5.063,0,.063.147t-.084.147q-.315,0-.7-.032-.363-.032-.646-.032-.226,0-.568.032-.357.032-.61.032-.079,0-.079-.131,0-.147.121-.158a1.3,1.3,0,0,0,.691-.242,2.191,2.191,0,0,0,.528-.815l2.459-6.038a.139.139,0,0,1,.147-.084q.126,0,.158.079l2.17,6.043a1.611,1.611,0,0,0,.5.751,1.673,1.673,0,0,0,.838.3Q32.072-6.9,32.072-6.77ZM28.893-9.891l-.925-2.685-1,2.685Zm9.654,1.335a16.278,16.278,0,0,0-.389,1.934q-2.013-.063-2.864-.063t-2.827.063q-.084,0-.084-.147,0-.131.084-.142a2.012,2.012,0,0,0,.864-.236.759.759,0,0,0,.229-.652v-4.945a1.053,1.053,0,0,0-.092-.518.614.614,0,0,0-.323-.236,3.06,3.06,0,0,0-.678-.139q-.084,0-.084-.147t.084-.147q.352,0,.841.032.468.032.788.032t.783-.032q.483-.032.836-.032.084,0,.084.147t-.084.147a3.047,3.047,0,0,0-.673.139.605.605,0,0,0-.321.234,1.078,1.078,0,0,0-.089.52v5.1a.544.544,0,0,0,.61.62h1.041a1.737,1.737,0,0,0,1.093-.344,3.468,3.468,0,0,0,.883-1.285q.021-.042.1-.042a.221.221,0,0,1,.129.042A.117.117,0,0,1,38.547-8.556Zm8.387,3.763a.148.148,0,0,1-.045.121,1.8,1.8,0,0,1-.444.11,5.787,5.787,0,0,1-.972.084A3.651,3.651,0,0,1,43.5-5.035a3.051,3.051,0,0,1-1.261-1.471,3.619,3.619,0,0,1-2.32-1.235,3.728,3.728,0,0,1-.864-2.5A3.764,3.764,0,0,1,40.136-13a3.762,3.762,0,0,1,2.8-1.093A3.745,3.745,0,0,1,45.72-13,3.767,3.767,0,0,1,46.8-10.238a3.753,3.753,0,0,1-.862,2.5,3.556,3.556,0,0,1-2.312,1.227A2.854,2.854,0,0,0,46.261-4.9a4.981,4.981,0,0,0,.594-.047Q46.934-4.946,46.934-4.794Zm-1.293-5.444a4.084,4.084,0,0,0-.744-2.533,2.343,2.343,0,0,0-1.963-.983,2.348,2.348,0,0,0-1.968.983,4.084,4.084,0,0,0-.744,2.533,3.993,3.993,0,0,0,.741,2.507,2.364,2.364,0,0,0,1.971.962A2.359,2.359,0,0,0,44.9-7.731,3.993,3.993,0,0,0,45.641-10.238ZM54.533-6.77q0,.147-.084.147-.363,0-.82-.032-.394-.032-.673-.032-.321,0-.794.032-.5.032-.851.032-.084,0-.084-.147t.063-.147a1.792,1.792,0,0,0,.673-.123.335.335,0,0,0,.2-.318,1.515,1.515,0,0,0-.105-.436l-.594-1.76H49.3l-.6,1.629a1.644,1.644,0,0,0-.116.5q0,.462.851.5.063,0,.063.147t-.084.147q-.315,0-.7-.032-.363-.032-.646-.032-.226,0-.568.032-.357.032-.61.032-.079,0-.079-.131,0-.147.121-.158a1.3,1.3,0,0,0,.691-.242,2.191,2.191,0,0,0,.528-.815l2.459-6.038a.139.139,0,0,1,.147-.084q.126,0,.158.079l2.17,6.043a1.611,1.611,0,0,0,.5.751,1.673,1.673,0,0,0,.838.3Q54.533-6.9,54.533-6.77ZM51.353-9.891l-.925-2.685-1,2.685ZM62.163-6.77q0,.147-.084.147-.194,0-.636-.037-.321-.026-.426-.026-.152,0-.478.032t-.478.032l-1.592-2.6a2.7,2.7,0,0,0-.544-.688,1.542,1.542,0,0,0-.833-.152V-7.8a1.038,1.038,0,0,0,.092.512.615.615,0,0,0,.326.236,3.087,3.087,0,0,0,.67.139q.089.011.089.142,0,.147-.084.147-.352,0-.841-.032-.468-.032-.788-.032t-.783.032q-.483.032-.836.032-.084,0-.084-.147,0-.131.084-.142a3.034,3.034,0,0,0,.667-.139.62.62,0,0,0,.323-.234A1.036,1.036,0,0,0,56.02-7.8v-4.945a1.093,1.093,0,0,0-.087-.512.6.6,0,0,0-.318-.239,2.939,2.939,0,0,0-.678-.142q-.084,0-.084-.147t.084-.147q.352,0,.836.032.462.032.783.032t.788-.032q.489-.032.841-.032a2.9,2.9,0,0,1,1.813.5,1.663,1.663,0,0,1,.641,1.4,1.535,1.535,0,0,1-.444,1.054,2.858,2.858,0,0,1-1.2.749l1.7,2.586a1.319,1.319,0,0,0,.541.512,2.632,2.632,0,0,0,.857.229Q62.163-6.9,62.163-6.77Zm-2.68-5.271q0-1.535-1.34-1.535a2.4,2.4,0,0,0-.67.071.474.474,0,0,0-.3.223,1.317,1.317,0,0,0-.076.536v2.339a5.781,5.781,0,0,0,.767.042,1.661,1.661,0,0,0,1.235-.4A1.78,1.78,0,0,0,59.483-12.04Zm10.374,1.8a3.664,3.664,0,0,1-1.072,2.725,3.814,3.814,0,0,1-2.8,1.059,3.805,3.805,0,0,1-2.8-1.059,3.669,3.669,0,0,1-1.069-2.725A3.767,3.767,0,0,1,63.193-13a3.751,3.751,0,0,1,2.79-1.09,3.758,3.758,0,0,1,2.8,1.09A3.767,3.767,0,0,1,69.857-10.238Zm-1.156,0a4.063,4.063,0,0,0-.749-2.533,2.357,2.357,0,0,0-1.968-.983,2.348,2.348,0,0,0-1.968.983,4.084,4.084,0,0,0-.744,2.533,3.96,3.96,0,0,0,.738,2.494,2.369,2.369,0,0,0,1.973.954,2.378,2.378,0,0,0,1.973-.954A3.941,3.941,0,0,0,68.7-10.238ZM79.432-8.767a1.993,1.993,0,0,1-.652,1.558,2.488,2.488,0,0,1-1.729.586q-.352,0-1-.032-.615-.032-.935-.032t-.862.032q-.562.032-.914.032-.084,0-.084-.147,0-.131.084-.142a2.012,2.012,0,0,0,.864-.236.759.759,0,0,0,.229-.652v-4.945a1.053,1.053,0,0,0-.092-.518.614.614,0,0,0-.323-.236,3.06,3.06,0,0,0-.678-.139q-.084,0-.084-.147t.084-.147q.352,0,.862.032.489.032.809.032t.841-.032q.552-.032.9-.032a2.522,2.522,0,0,1,1.587.468,1.486,1.486,0,0,1,.6,1.235,1.427,1.427,0,0,1-.447,1,2.143,2.143,0,0,1-1.1.612,3.065,3.065,0,0,1,1.482.678A1.524,1.524,0,0,1,79.432-8.767Zm-1.65-3.463a1.351,1.351,0,0,0-.342-1.019,1.493,1.493,0,0,0-1.062-.326h-.21q-.662,0-.662.568v2.286h.757a1.6,1.6,0,0,0,1.159-.355A1.569,1.569,0,0,0,77.782-12.23Zm.494,3.463a1.6,1.6,0,0,0-.431-1.188,1.612,1.612,0,0,0-1.193-.431H75.506V-7.8a.719.719,0,0,0,.273.654,1.82,1.82,0,0,0,.935.176,1.428,1.428,0,0,0,1.125-.5A1.9,1.9,0,0,0,78.276-8.767Zm9.207,2q0,.147-.084.147-.363,0-.82-.032-.394-.032-.673-.032-.321,0-.794.032-.5.032-.851.032-.084,0-.084-.147t.063-.147a1.792,1.792,0,0,0,.673-.123.336.336,0,0,0,.2-.318,1.515,1.515,0,0,0-.105-.436l-.594-1.76H82.254l-.6,1.629a1.643,1.643,0,0,0-.116.5q0,.462.851.5.063,0,.063.147t-.084.147q-.315,0-.7-.032-.363-.032-.646-.032-.226,0-.568.032-.357.032-.61.032-.079,0-.079-.131,0-.147.121-.158a1.3,1.3,0,0,0,.691-.242,2.191,2.191,0,0,0,.528-.815l2.459-6.038a.139.139,0,0,1,.147-.084q.126,0,.158.079l2.17,6.043a1.611,1.611,0,0,0,.5.751,1.673,1.673,0,0,0,.838.3Q87.483-6.9,87.483-6.77ZM84.3-9.891l-.925-2.685-1,2.685Zm12,3.122q0,.147-.084.147-.357,0-.846-.032-.462-.032-.783-.032t-.741.032q-.441.032-.794.032-.084,0-.084-.147,0-.131.089-.142a2.545,2.545,0,0,0,.657-.145.475.475,0,0,0,.276-.242,1.473,1.473,0,0,0,.06-.5v-2.344h-4.01V-7.8a1.473,1.473,0,0,0,.06.5.475.475,0,0,0,.276.242,2.56,2.56,0,0,0,.662.145q.084.011.084.142,0,.147-.084.147-.352,0-.794-.032-.42-.032-.741-.032t-.788.032q-.489.032-.841.032-.084,0-.084-.147,0-.131.084-.142a2.012,2.012,0,0,0,.864-.236A.759.759,0,0,0,88.97-7.8v-4.945a1.053,1.053,0,0,0-.092-.518.614.614,0,0,0-.323-.236,3.06,3.06,0,0,0-.678-.139q-.084,0-.084-.147t.084-.147q.352,0,.841.032.468.032.788.032t.741-.032q.441-.032.794-.032.084,0,.084.147t-.084.147a2.778,2.778,0,0,0-.62.126.566.566,0,0,0-.294.213,1.192,1.192,0,0,0-.084.554v2.265h4.01v-2.265a1.5,1.5,0,0,0-.06-.5.472.472,0,0,0-.273-.244,2.532,2.532,0,0,0-.665-.145q-.084,0-.084-.147t.084-.147q.352,0,.794.032.42.032.741.032t.783-.032q.489-.032.846-.032.084,0,.084.147t-.084.147a3.06,3.06,0,0,0-.678.139.614.614,0,0,0-.323.236,1.053,1.053,0,0,0-.092.518V-7.8a.759.759,0,0,0,.229.652,2.012,2.012,0,0,0,.864.236Q96.3-6.9,96.3-6.77Zm8.513-3.468a3.664,3.664,0,0,1-1.072,2.725,3.814,3.814,0,0,1-2.8,1.059,3.805,3.805,0,0,1-2.8-1.059,3.669,3.669,0,0,1-1.069-2.725A3.767,3.767,0,0,1,98.151-13a3.751,3.751,0,0,1,2.79-1.09,3.758,3.758,0,0,1,2.8,1.09A3.767,3.767,0,0,1,104.814-10.238Zm-1.156,0a4.063,4.063,0,0,0-.749-2.533,2.357,2.357,0,0,0-1.968-.983,2.348,2.348,0,0,0-1.968.983,4.084,4.084,0,0,0-.744,2.533,3.96,3.96,0,0,0,.738,2.494,2.369,2.369,0,0,0,1.973.954,2.378,2.378,0,0,0,1.973-.954A3.941,3.941,0,0,0,103.658-10.238Zm8.093,1.682a16.278,16.278,0,0,0-.389,1.934q-2.013-.063-2.864-.063t-2.827.063q-.084,0-.084-.147,0-.131.084-.142a2.012,2.012,0,0,0,.864-.236.759.759,0,0,0,.229-.652v-4.945a1.053,1.053,0,0,0-.092-.518.614.614,0,0,0-.323-.236,3.06,3.06,0,0,0-.678-.139q-.084,0-.084-.147t.084-.147q.352,0,.841.032.468.032.788.032t.783-.032q.483-.032.836-.032.084,0,.084.147t-.084.147a3.047,3.047,0,0,0-.673.139.605.605,0,0,0-.321.234,1.078,1.078,0,0,0-.089.52v5.1a.544.544,0,0,0,.61.62h1.041a1.737,1.737,0,0,0,1.093-.344,3.468,3.468,0,0,0,.883-1.285q.021-.042.1-.042a.222.222,0,0,1,.129.042A.117.117,0,0,1,111.751-8.556Zm7.736,1.787q0,.147-.084.147-.363,0-.82-.032-.394-.032-.673-.032-.321,0-.794.032-.5.032-.851.032-.084,0-.084-.147t.063-.147a1.792,1.792,0,0,0,.673-.123.336.336,0,0,0,.2-.318,1.515,1.515,0,0,0-.105-.436l-.594-1.76h-2.165l-.6,1.629a1.644,1.644,0,0,0-.116.5q0,.462.851.5.063,0,.063.147t-.084.147q-.315,0-.7-.032-.363-.032-.646-.032-.226,0-.568.032-.357.032-.61.032-.079,0-.079-.131,0-.147.121-.158a1.3,1.3,0,0,0,.691-.242,2.191,2.191,0,0,0,.528-.815l2.459-6.038a.139.139,0,0,1,.147-.084q.126,0,.158.079l2.17,6.043a1.611,1.611,0,0,0,.5.751,1.673,1.673,0,0,0,.838.3Q119.486-6.9,119.486-6.77Zm-3.179-3.122-.925-2.685-1,2.685Zm8.14,1.156a2.242,2.242,0,0,1-.62,1.663,2.271,2.271,0,0,1-1.676.617,4.589,4.589,0,0,1-1.119-.168,3.961,3.961,0,0,0-.972-.158q-.032-.893-.126-1.787,0-.084.158-.084a.125.125,0,0,1,.137.084,2.956,2.956,0,0,0,.725,1.377,1.783,1.783,0,0,0,1.24.4,1.294,1.294,0,0,0,.985-.368,1.436,1.436,0,0,0,.349-1.03,1.211,1.211,0,0,0-.3-.791,5.318,5.318,0,0,0-1.3-.943,5.383,5.383,0,0,1-1.492-1.114,1.623,1.623,0,0,1-.352-1.014,1.9,1.9,0,0,1,.633-1.448,2.26,2.26,0,0,1,1.605-.591,4.2,4.2,0,0,1,.846.1,4.02,4.02,0,0,0,.772.089q.063.925.168,1.629,0,.084-.137.084t-.163-.084a2.257,2.257,0,0,0-.526-1.135,1.325,1.325,0,0,0-.972-.347,1.264,1.264,0,0,0-.935.347,1.264,1.264,0,0,0-.347.935,1.079,1.079,0,0,0,.292.712,5.486,5.486,0,0,0,1.264.907,5.743,5.743,0,0,1,1.508,1.125A1.565,1.565,0,0,1,124.447-8.735Zm9.186,1.965q0,.147-.084.147-.357,0-.846-.032-.462-.032-.783-.032t-.741.032q-.441.032-.794.032-.084,0-.084-.147,0-.131.089-.142a2.545,2.545,0,0,0,.657-.145.475.475,0,0,0,.276-.242,1.473,1.473,0,0,0,.06-.5v-2.344h-4.01V-7.8a1.473,1.473,0,0,0,.06.5.475.475,0,0,0,.276.242,2.56,2.56,0,0,0,.662.145q.084.011.084.142,0,.147-.084.147-.352,0-.794-.032-.42-.032-.741-.032t-.788.032q-.489.032-.841.032-.084,0-.084-.147,0-.131.084-.142a2.012,2.012,0,0,0,.864-.236A.759.759,0,0,0,126.3-7.8v-4.945a1.053,1.053,0,0,0-.092-.518.614.614,0,0,0-.323-.236,3.06,3.06,0,0,0-.678-.139q-.084,0-.084-.147t.084-.147q.352,0,.841.032.468.032.788.032t.741-.032q.441-.032.794-.032.084,0,.084.147t-.084.147a2.778,2.778,0,0,0-.62.126.566.566,0,0,0-.294.213,1.192,1.192,0,0,0-.084.554v2.265h4.01v-2.265a1.5,1.5,0,0,0-.06-.5.472.472,0,0,0-.273-.244,2.532,2.532,0,0,0-.665-.145q-.084,0-.084-.147t.084-.147q.352,0,.794.032.42.032.741.032t.783-.032q.489-.032.846-.032.084,0,.084.147t-.084.147a3.06,3.06,0,0,0-.678.139.614.614,0,0,0-.323.236,1.053,1.053,0,0,0-.092.518V-7.8a.759.759,0,0,0,.229.652,2.012,2.012,0,0,0,.864.236Q133.633-6.9,133.633-6.77Z" transform="translate(277.367 97.218)" fill="#fff"/>
    <path id="Path_141" data-name="Path 141" d="M25.355,4.5q0,.374-.214.374-.894,0-2.175-.08-1.228-.08-2.042-.08t-1.988.08q-1.228.08-2.122.08-.24,0-.24-.374,0-.334.214-.36a5.209,5.209,0,0,0,2.128-.574A1.659,1.659,0,0,0,19.483,2.1V1.884l-.56-12.931L12.49,5.086a.352.352,0,0,1-.374.214q-.307,0-.36-.214L5.7-10.407,4.737,1.884a3.474,3.474,0,0,0-.027.4,1.4,1.4,0,0,0,.614,1.281,5.576,5.576,0,0,0,2.189.56q.187.027.187.374,0,.374-.24.374-.694,0-1.895-.08-1.121-.08-1.735-.08-.667,0-1.815.08-1.108.08-1.708.08Q.12,4.873.12,4.5q0-.334.24-.36a5.8,5.8,0,0,0,2.329-.627,2.012,2.012,0,0,0,.741-1.628L4.817-10.674q.013-.24.013-.427a1.37,1.37,0,0,0-.614-1.254,5.912,5.912,0,0,0-2.229-.587q-.187,0-.187-.374a.45.45,0,0,1,.08-.254q.08-.12.16-.12.494,0,1.4.08.774.08,1.134.08.467,0,1.334-.08.894-.08,1.388-.08L13.024,1.163,18.949-13.69q.534,0,1.4.08.787.08,1.241.08.56,0,1.348-.08.814-.08,1.4-.08.24,0,.24.374t-.214.374a5.209,5.209,0,0,0-2.128.574,1.659,1.659,0,0,0-.567,1.468v.227l.614,12.557a2.727,2.727,0,0,0,.287,1.308,1.655,1.655,0,0,0,.847.594,8.006,8.006,0,0,0,1.721.354Q25.355,4.165,25.355,4.5Zm20.1,0q0,.374-.214.374-.921,0-2.082-.08-1-.08-1.708-.08-.814,0-2.015.08-1.268.08-2.162.08-.214,0-.214-.374t.16-.374a4.551,4.551,0,0,0,1.708-.314A.852.852,0,0,0,39.447,3,3.849,3.849,0,0,0,39.18,1.9l-1.508-4.47h-5.5L30.653,1.563a4.174,4.174,0,0,0-.294,1.281q0,1.174,2.162,1.281.16,0,.16.374t-.214.374q-.8,0-1.775-.08-.921-.08-1.641-.08-.574,0-1.441.08-.907.08-1.548.08-.2,0-.2-.334,0-.374.307-.4a3.307,3.307,0,0,0,1.755-.614,5.564,5.564,0,0,0,1.341-2.068L35.51-13.876a.352.352,0,0,1,.374-.214q.32,0,.4.2L41.8,1.456a4.09,4.09,0,0,0,1.261,1.908,4.249,4.249,0,0,0,2.128.774Q45.452,4.165,45.452,4.5ZM37.378-3.428,35.03-10.247,32.494-3.428ZM64.828,4.5q0,.374-.214.374-.494,0-1.615-.093-.814-.067-1.081-.067-.387,0-1.214.08t-1.214.08L55.447-1.72a6.856,6.856,0,0,0-1.381-1.748,3.916,3.916,0,0,0-2.115-.387V1.884a2.637,2.637,0,0,0,.234,1.3,1.561,1.561,0,0,0,.827.6,7.838,7.838,0,0,0,1.7.354q.227.027.227.36,0,.374-.214.374-.894,0-2.135-.08-1.188-.08-2-.08t-1.988.08q-1.228.08-2.122.08-.214,0-.214-.374,0-.334.214-.36a7.7,7.7,0,0,0,1.695-.354,1.575,1.575,0,0,0,.821-.594,2.632,2.632,0,0,0,.234-1.308V-10.674a2.775,2.775,0,0,0-.22-1.3,1.516,1.516,0,0,0-.807-.607,7.462,7.462,0,0,0-1.721-.36q-.214,0-.214-.374t.214-.374q.894,0,2.122.08,1.174.08,1.988.08t2-.08q1.241-.08,2.135-.08a7.372,7.372,0,0,1,4.6,1.261,4.224,4.224,0,0,1,1.628,3.543A3.9,3.9,0,0,1,59.831-6.21a7.257,7.257,0,0,1-3.049,1.9l4.31,6.566a3.351,3.351,0,0,0,1.375,1.3,6.684,6.684,0,0,0,2.175.58Q64.828,4.165,64.828,4.5ZM58.022-8.886q0-3.9-3.4-3.9a6.089,6.089,0,0,0-1.7.18,1.2,1.2,0,0,0-.774.567,3.344,3.344,0,0,0-.193,1.361v5.938a14.68,14.68,0,0,0,1.948.107,4.218,4.218,0,0,0,3.136-1.014A4.519,4.519,0,0,0,58.022-8.886ZM86.046,4.5q0,.374-.214.374-.894,0-2.135-.08-1.188-.08-2-.08-.787,0-2.175.08-1.455.08-2.349.08-.214,0-.214-.374,0-.334.187-.36,1.8-.214,1.8-.867a1.6,1.6,0,0,0-.587-.961l-5.3-5.391a2.571,2.571,0,0,0-.741-.56,2.251,2.251,0,0,0-.861-.133V1.884a2.637,2.637,0,0,0,.234,1.3,1.561,1.561,0,0,0,.827.6,7.838,7.838,0,0,0,1.7.354q.227.027.227.36,0,.374-.214.374-.894,0-2.135-.08-1.188-.08-2-.08t-1.975.08q-1.241.08-2.135.08-.214,0-.214-.374,0-.334.214-.36a5.11,5.11,0,0,0,2.2-.6,1.927,1.927,0,0,0,.58-1.655V-10.674a2.674,2.674,0,0,0-.234-1.314,1.559,1.559,0,0,0-.821-.6,7.77,7.77,0,0,0-1.721-.354q-.214,0-.214-.374t.214-.374q.894,0,2.135.08,1.174.08,1.975.08t2-.08q1.241-.08,2.135-.08.214,0,.214.374t-.214.374a7.77,7.77,0,0,0-1.721.354,1.559,1.559,0,0,0-.821.6,2.673,2.673,0,0,0-.234,1.314v6.045a2.217,2.217,0,0,0,.841-.133,2.669,2.669,0,0,0,.761-.56L78.92-11.1q.721-.681.721-.988a.579.579,0,0,0-.34-.54,4.7,4.7,0,0,0-1.368-.314q-.214,0-.214-.374t.24-.374q.627,0,1.655.08,1.094.08,1.815.08a15.3,15.3,0,0,0,1.6-.093q.734-.067,1.254-.067.187,0,.187.374t-.214.374a6.505,6.505,0,0,0-2.015.52,7.72,7.72,0,0,0-1.761,1.334L74.4-5.3l7.566,7.687a5.459,5.459,0,0,0,1.555,1.194,7.743,7.743,0,0,0,2.289.554Q86.046,4.165,86.046,4.5Zm19.59,0q0,.374-.214.374-.921,0-2.082-.08-1-.08-1.708-.08-.814,0-2.015.08-1.268.08-2.162.08-.214,0-.214-.374t.16-.374a4.551,4.551,0,0,0,1.708-.314A.852.852,0,0,0,99.631,3,3.848,3.848,0,0,0,99.364,1.9l-1.508-4.47h-5.5L90.837,1.563a4.174,4.174,0,0,0-.294,1.281q0,1.174,2.162,1.281.16,0,.16.374t-.214.374q-.8,0-1.775-.08-.921-.08-1.641-.08-.574,0-1.441.08-.907.08-1.548.08-.2,0-.2-.334,0-.374.307-.4a3.307,3.307,0,0,0,1.755-.614,5.564,5.564,0,0,0,1.341-2.068l6.245-15.333a.352.352,0,0,1,.374-.214q.32,0,.4.2L101.98,1.456a4.09,4.09,0,0,0,1.261,1.908,4.249,4.249,0,0,0,2.128.774Q105.636,4.165,105.636,4.5ZM97.563-3.428l-2.349-6.819L92.678-3.428ZM123.184.336a36.152,36.152,0,0,0-.921,4.644,60.923,60.923,0,0,0-7.753-.267,63.474,63.474,0,0,0-7.847.254q-.347,0-.347-.467l.053-.214,12.824-16.961H113.2a5.729,5.729,0,0,0-5.671,3.643q-.107.254-.307.254-.44,0-.44-.28l.053-.187a41.536,41.536,0,0,0,1.481-4.551,49.277,49.277,0,0,0,7.046.267,54.386,54.386,0,0,0,7.326-.254q.347,0,.347.494a.338.338,0,0,1-.067.2L110.16,3.859h7.073a5.576,5.576,0,0,0,3.289-.961A5.03,5.03,0,0,0,122.437.2a.289.289,0,0,1,.307-.214Q123.2-.011,123.184.336ZM133.753,4.5q0,.374-.214.374-.894,0-2.122-.08-1.174-.08-1.988-.08t-1.988.08q-1.241.08-2.148.08-.214,0-.214-.374,0-.334.214-.36a5.11,5.11,0,0,0,2.2-.6,1.927,1.927,0,0,0,.581-1.655V-10.674a2.673,2.673,0,0,0-.234-1.314,1.559,1.559,0,0,0-.821-.6,7.77,7.77,0,0,0-1.721-.354q-.214,0-.214-.374t.214-.374q.907,0,2.148.08,1.174.08,1.988.08t1.988-.08q1.228-.08,2.122-.08.214,0,.214.374t-.214.374a7.736,7.736,0,0,0-1.708.354,1.537,1.537,0,0,0-.814.594,2.736,2.736,0,0,0-.227,1.321V1.884a2.7,2.7,0,0,0,.227,1.3,1.521,1.521,0,0,0,.807.6,7.6,7.6,0,0,0,1.7.354Q133.753,4.165,133.753,4.5Z" transform="translate(277.247 108.32)" fill="#fff"/>
    <g id="Group_10" data-name="Group 10" transform="translate(200.875 58.829)">
      <path id="Path_129" data-name="Path 129" d="M147.342,484.51a22.456,22.456,0,0,1,5.679,7.367,20.775,20.775,0,1,1-32.628-6.809c.1-.085.313-.257.51-.413l.34-.269.023,1.135c-.071.062.531-.05.375.073-.2.161-.427.336-.459.367a19.578,19.578,0,1,0,25.642-.3Z" transform="translate(-101.303 -467.725)" fill="#fff" fill-rule="evenodd"/>
      <path id="Path_130" data-name="Path 130" d="M140.844,488.891l7.473,0a9.885,9.885,0,0,0-1.38-2.5,2.616,2.616,0,0,1-2.83-.556,2.753,2.753,0,0,1-.46-2.734,12.548,12.548,0,0,0-5.364-2.237c.172.5.655,1.167.916,1.755,1.188,2.68,1.009,3.956,1.645,6.275Zm7.04-3.251,6.241.811,1.227,9.882,6.2,8.06-6.117,7.854-1.316,10.087-9.882,1.229-8.06,6.2-7.852-6.117-10.089-1.318-1.229-9.88-6.2-8.06,6.117-7.854,1.318-10.087,5.446-.678c.877-.108,1.293.267.754,1.107l0,0h0a9.213,9.213,0,0,0-1.05,1.987l5.582.03a2.915,2.915,0,0,1,.76-1.217,2.75,2.75,0,0,1,1.44-.664c.161-.384.294-1.234.416-1.7a17.32,17.32,0,0,1,1.1-3.088c.239-.487.6-.953.769-1.346a12.087,12.087,0,0,0-4.624,1.693c-.5.306-.818.714-1.491.53-.422-.808-.149-.976,1.433-1.828a14.79,14.79,0,0,1,14.41.131c.336.191.836.595,1.1.715.319.145.744-.267,1.261-.331a2.421,2.421,0,0,1,2.4,1.172c.774,1.364-.05,2.3-.055,2.678Zm-24.919,1.424a14.635,14.635,0,0,0-1.293,3.168,14.921,14.921,0,0,0-.315,6.522,12.614,12.614,0,0,0,2.125,5.336.756.756,0,0,0,1.279.078.273.273,0,0,0-.073-.287,10.5,10.5,0,0,1-1.3-2.382l7.473-.027c.253,1.078.4,1.875.556,2.708.119.682,1.3.772,1.1-.124a14.527,14.527,0,0,1-.434-2.563l5.846-.021c.561,1.224.526.944,1.4,1.688a8.912,8.912,0,0,1-.161,1.142c-.078.384.979.5,1.135-.115a4.4,4.4,0,0,1,.264-.806c.443-.455,1.263.067,2.1-1.906l5.609,0a4.16,4.16,0,0,1-.728,1.649l-.135.216c-.117.184-.243.366-.377.542a.273.273,0,0,0-.073.287.694.694,0,0,0,1.125.12.722.722,0,0,0,.154-.2c.12-.2.269-.423.434-.691l0-.005.034-.055h0l.117-.216a14.69,14.69,0,0,0,.384-13.132c-.156-.337-.344-.717-.528-1.048l4.371.57,1.155,9.283,5.839,7.592L154.3,511.77l-1.24,9.492-9.283,1.154-7.592,5.839-7.381-5.75-9.492-1.238-1.153-9.283-5.841-7.592,5.75-7.381,1.238-9.492,3.662-.455Zm22.613-4.105a1.26,1.26,0,0,1,.664,2.424,1.26,1.26,0,1,1-.664-2.424Zm-13.208,4.249c.2-2.061,2.038-7.877,4.245-6.308,1.661,1.179,3.009,6.223,3.009,7.994l-5.874-.012a2.331,2.331,0,0,0-.53-.951,2.87,2.87,0,0,0-.85-.722Zm-1.426,1.1a1.251,1.251,0,0,0,.82,2.364,1.251,1.251,0,1,0-.82-2.364Zm10.16,8.27c.754.581,1.272.618,1.521,1.739l6.129.005c.846-1.643.857-6.638,0-8.237l-7.8-.035c.065,1.087.152,2.093.175,3.182s-.085,2.315-.025,3.345Zm-18.154-6.491c-.839,1.615-.87,6.584,0,8.239l7.8,0c-.14-2.306-.2-4.224-.129-6.558a2.465,2.465,0,0,1-1.651-1.716l-6.021.039Zm8.818,1.815a63.317,63.317,0,0,0,.154,6.423l6.048-.018c.349-1.3.9-1.333,1.966-1.838a34.776,34.776,0,0,0-.165-6.365,52.788,52.788,0,0,0-6.021-.028,2.5,2.5,0,0,1-.751,1.163,2.429,2.429,0,0,1-1.231.662Zm9.707,7.447a1.264,1.264,0,0,0-2.32-.992A1.264,1.264,0,1,0,141.475,499.345Z" transform="translate(-103.309 -471.519)" fill="#fff" fill-rule="evenodd"/>
      <path id="Path_131" data-name="Path 131" d="M139.84,475.336l9.57,8.571,13.277.7.735,13.362,8.892,9.88-8.929,9.969-.7,13.275-13.36.737-9.882,8.892-9.969-8.929-13.275-.7-.735-13.362-8.894-9.88,8.929-9.969.7-13.275,13.362-.737,9.88-8.892.4.358Zm8.933,9.6-9.328-8.354-9.4,8.458-12.714.7-.664,12.623-8.5,9.485,8.458,9.4.7,12.714,12.623.664,9.485,8.5,9.4-8.458,12.715-.7.664-12.623,8.493-9.485-8.456-9.4-.7-12.714-12.623-.664Z" transform="translate(-106.573 -474.978)" fill="#fff" fill-rule="evenodd"/>
      <path id="Path_132" data-name="Path 132" d="M117.7,491.816H119c.117.184.243.367.377.542a.273.273,0,0,1,.073.287.756.756,0,0,1-1.279-.078C118.04,492.356,117.879,492.11,117.7,491.816Z" transform="translate(-97.996 -461.997)" fill="#fff" fill-rule="evenodd"/>
      <path id="Path_133" data-name="Path 133" d="M146.771,495.658a.518.518,0,0,0-.517.517v11.554c.358-.342.7-.7,1.036-1.066V496.175a.518.518,0,0,0-.519-.517Zm-2.143,13.472a.515.515,0,0,0-.4.3c.135-.1.269-.2.4-.3ZM136.6,512.9c-.329.053-.655.117-.978.193.328-.057.655-.12.978-.193Zm-4.33.489V500.319a.518.518,0,1,0-1.036,0v13.052c.3.014.607.023.914.023l.122,0Zm-12.949-4.539q-.534-.43-1.036-.9V493.586a.518.518,0,0,1,.517-.519h8.5a4.98,4.98,0,0,1,4.454,2.763,4.98,4.98,0,0,1,4.454-2.763h8.5a.518.518,0,0,1,.517.519v13.984a.518.518,0,1,1-1.036,0V494.1h-7.976a3.94,3.94,0,0,0-3.935,3.94h0a.518.518,0,0,1-1.036,0h0a3.942,3.942,0,0,0-3.937-3.94h-7.976v14.75Zm-2.072-1.929v-10.75a.518.518,0,0,0-1.036,0v9.553q.5.619,1.036,1.2Zm4.723,3.753c-.365-.211-.724-.434-1.075-.668a.517.517,0,0,1,.5-.368H127.3a4.968,4.968,0,0,1,2.756.836.518.518,0,0,1-.287.949.511.511,0,0,1-.287-.087,3.922,3.922,0,0,0-2.182-.662h-5.329Zm20.138-1.036H136.2a4.968,4.968,0,0,0-2.756.836.518.518,0,0,0,.287.949.526.526,0,0,0,.289-.087,3.916,3.916,0,0,1,2.18-.662h5.908a.518.518,0,1,0,0-1.036Zm0-2.589H136.2a4.953,4.953,0,0,0-2.756.836.518.518,0,0,0,.287.949.528.528,0,0,0,.289-.088,3.929,3.929,0,0,1,2.18-.661h5.908a.518.518,0,1,0,0-1.036Zm-12.055.836a4.957,4.957,0,0,0-2.756-.836h-5.906a.518.518,0,1,0,0,1.036H127.3a3.934,3.934,0,0,1,2.182.661.517.517,0,0,0,.574-.861Zm12.055-3.425H136.2a4.967,4.967,0,0,0-2.756.834.518.518,0,0,0,.576.863,3.931,3.931,0,0,1,2.18-.662h5.908a.517.517,0,1,0,0-1.034Zm-12.055.834a4.971,4.971,0,0,0-2.756-.834h-5.906a.517.517,0,1,0,0,1.034H127.3a3.937,3.937,0,0,1,2.182.662.511.511,0,0,0,.287.087.518.518,0,0,0,.287-.949Zm12.055-3.425H136.2a4.969,4.969,0,0,0-2.756.836.518.518,0,0,0,.576.863,3.917,3.917,0,0,1,2.18-.662h5.908a.518.518,0,1,0,0-1.036Zm-12.055.836a4.973,4.973,0,0,0-2.756-.836h-5.906a.518.518,0,1,0,0,1.036H127.3a3.923,3.923,0,0,1,2.182.662.51.51,0,0,0,.287.087.518.518,0,0,0,.287-.949Zm12.055-3.425H136.2a4.954,4.954,0,0,0-2.756.836.518.518,0,0,0,.287.949.54.54,0,0,0,.289-.087,3.917,3.917,0,0,1,2.18-.662h5.908a.518.518,0,1,0,0-1.036Zm-12.055.836a4.958,4.958,0,0,0-2.756-.836h-5.906a.518.518,0,1,0,0,1.036H127.3a3.923,3.923,0,0,1,2.182.662.525.525,0,0,0,.287.087.518.518,0,0,0,.287-.949Zm12.055-3.425H136.2a4.966,4.966,0,0,0-2.756.834.518.518,0,0,0,.576.862,3.929,3.929,0,0,1,2.18-.661h5.908a.518.518,0,1,0,0-1.036Zm-12.055.834a4.97,4.97,0,0,0-2.756-.834h-5.906a.518.518,0,1,0,0,1.036H127.3a3.935,3.935,0,0,1,2.182.661.511.511,0,0,0,.287.087.518.518,0,0,0,.287-.949Z" transform="translate(-99.141 -461.032)" fill="#fff" fill-rule="evenodd"/>
    </g>
  </g>
</svg>
